<?xml version="1.0" encoding="UTF-8" standalone="no"?>
<!DOCTYPE svg PUBLIC "-//W3C//DTD SVG 1.1//EN" "http://www.w3.org/Graphics/SVG/1.1/DTD/svg11.dtd">
<svg width="100%" height="100%" viewBox="0 0 128 128" version="1.1" xmlns="http://www.w3.org/2000/svg" xmlns:xlink="http://www.w3.org/1999/xlink" xml:space="preserve" xmlns:serif="http://www.serif.com/" style="fill-rule:evenodd;clip-rule:evenodd;stroke-linejoin:round;stroke-miterlimit:2;">
    <g transform="matrix(0.05607,0,-0.0206015,0.05607,17.4669,37.5095)">
        <path d="M236.22,118.11C236.22,52.923 183.297,0 118.11,0C52.923,0 0,52.923 0,118.11L0,826.772C0,891.958 52.923,944.882 118.11,944.882C183.297,944.882 236.22,891.958 236.22,826.772L236.22,118.11Z"/>
    </g>
    <g transform="matrix(0.05607,0,-0.0206015,0.05607,37.3342,37.5095)">
        <path d="M236.22,118.11C236.22,52.923 183.297,0 118.11,0C52.923,0 0,52.923 0,118.11L0,826.772C0,891.958 52.923,944.882 118.11,944.882C183.297,944.882 236.22,891.958 236.22,826.772L236.22,118.11Z"/>
    </g>
    <g transform="matrix(0.05607,0,-0.0206015,0.05607,57.2016,37.5095)">
        <path d="M236.22,118.11C236.22,52.923 183.297,0 118.11,0C52.923,0 0,52.923 0,118.11L0,826.772C0,891.958 52.923,944.882 118.11,944.882C183.297,944.882 236.22,891.958 236.22,826.772L236.22,118.11Z"/>
    </g>
    <g transform="matrix(-0.0206033,0.05607,-0.0560694,-1.77754e-06,130.048,37.5112)">
        <path d="M236.22,134.058C236.22,60.069 183.297,0 118.11,0C52.923,0 0,60.069 0,134.058L0,810.824C0,884.813 52.923,944.882 118.11,944.882C183.297,944.882 236.22,884.813 236.22,810.824L236.22,134.058Z"/>
    </g>
    <g transform="matrix(-0.0206033,0.05607,-0.0560694,-1.77754e-06,122.747,57.3785)">
        <path d="M236.22,134.058C236.22,60.069 183.297,0 118.11,0C52.923,0 0,60.069 0,134.058L0,810.824C0,884.813 52.923,944.882 118.11,944.882C183.297,944.882 236.22,884.813 236.22,810.824L236.22,134.058Z"/>
    </g>
    <g transform="matrix(-0.0206033,0.05607,-0.0560694,-1.77754e-06,115.447,77.2458)">
        <path d="M236.22,134.058C236.22,60.069 183.297,0 118.11,0C52.923,0 0,60.069 0,134.058L0,810.824C0,884.813 52.923,944.882 118.11,944.882C183.297,944.882 236.22,884.813 236.22,810.824L236.22,134.058Z"/>
    </g>
        <style>
        path { fill: rgb(215,153,33); }
        @media (prefers-color-scheme: light) {
            path { fill: rgb(157,0,6); }
        }
    </style>
</svg>
