<?xml version="1.0" encoding="UTF-8" standalone="no"?>
<!DOCTYPE svg PUBLIC "-//W3C//DTD SVG 1.1//EN" "http://www.w3.org/Graphics/SVG/1.1/DTD/svg11.dtd">
<svg width="100%" height="100%" viewBox="0 0 222 222" version="1.1" xmlns="http://www.w3.org/2000/svg" xmlns:xlink="http://www.w3.org/1999/xlink" xml:space="preserve" xmlns:serif="http://www.serif.com/" style="fill-rule:evenodd;clip-rule:evenodd;stroke-linejoin:round;stroke-miterlimit:2;">
    <g id="图层-1" serif:id="图层 1" transform="matrix(1,0,0,1,-58.5398,0.00730912)">
        <g transform="matrix(0,-1,-1,0,116.2,149.1)">
            <path d="M-15.6,-15.6C-24.2,-15.6 -31.2,-8.6 -31.2,0C-31.2,8.6 -24.2,15.6 -15.6,15.6C-7,15.6 0,8.6 0,0C0,-8.6 -7,-15.6 -15.6,-15.6" style="fill:rgb(232,54,45);fill-rule:nonzero;"/>
        </g>
        <g transform="matrix(1,0,0,1,267.7,34.3)">
            <path d="M0,114.2C-10,43.5 -66,-12.6 -136.8,-22.6C-145.2,-18.3 -152.7,-12.7 -159.4,-6.3L-159.4,8.8C-88.8,8.8 -31.4,66.3 -31.4,136.8L-16.3,136.8C-9.9,130.1 -4.4,122.5 0,114.2" style="fill:rgb(232,54,45);fill-rule:nonzero;"/>
        </g>
        <g transform="matrix(1,0,0,1,279.4,12.6)">
            <path d="M0,88.6C0,32.7 -45.3,-12.6 -101.2,-12.6C-104.7,-12.6 -108.2,-12.4 -111.6,-12L-113.9,-5.4C-64.1,12 -24.6,51.5 -7.2,101.2L-0.4,98.9C-0.3,95.6 0,92.2 0,88.6" style="fill:rgb(232,54,45);fill-rule:nonzero;"/>
        </g>
        <g transform="matrix(1,0,0,1,179.3,16)">
            <path d="M0,205.6C-32.2,205.6 -62.3,193.1 -85.1,170.3C-107.9,147.5 -120.4,117.3 -120.4,85.2C-120.5,53 -107.9,22.8 -85.2,0L-78.8,6.4C-99.8,27.4 -111.4,55.3 -111.4,85.1C-111.4,114.9 -99.8,142.8 -78.8,163.8C-57.8,184.8 -29.9,196.4 -0.1,196.4C29.7,196.4 57.6,184.8 78.6,163.8L85,170.2C62.4,193 32.1,205.6 0,205.6" style="fill:rgb(232,54,45);fill-rule:nonzero;"/>
        </g>
        <g transform="matrix(1,0,0,1,178,80.2)">
            <path d="M0,97.8C2.5,72.7 -8.7,49.3 -27.5,35C-37.4,27.5 -49.5,22.6 -62.7,21.2C-66.2,20.8 -68.6,17.8 -68.3,14.4C-67.9,10.6 -64.8,8.4 -61.4,8.8C-47,10.3 -33.9,15.3 -22.8,23C1.1,39.5 15.6,68.1 12.5,99.1C12,104 11,108.7 9.8,113.3L28.1,118.5C33.5,116.9 38.9,115 44,112.6C45.3,105.6 46,98.4 46,91C46,33 3.2,-15 -52.5,-23.3C-59.2,-24.3 -65.9,-24.4 -70.9,-23.1C-78.8,-21.2 -85.6,-16.8 -90.8,-10.9C-96.9,-4 -100.6,5.1 -100.6,15.2C-100.6,32.8 -89,47.7 -73.2,52.7C-70.2,53.7 -65.6,54.1 -63.3,54.5L-63.2,54.5C-45.8,57.5 -32.5,72.7 -32.5,91C-32.5,98.3 -34.6,105.2 -38.4,110.9L-25.8,119C-19.7,120.7 -13.4,121.7 -6.9,122.2C-3.3,114.6 -0.9,106.4 0,97.8" style="fill:rgb(232,54,45);fill-rule:nonzero;"/>
        </g>
    </g>
</svg>
