<?xml version="1.0" encoding="UTF-8" standalone="no"?>
<!DOCTYPE svg PUBLIC "-//W3C//DTD SVG 1.1//EN" "http://www.w3.org/Graphics/SVG/1.1/DTD/svg11.dtd">
<svg width="100%" height="100%" viewBox="0 0 74 65" version="1.1" xmlns="http://www.w3.org/2000/svg" xmlns:xlink="http://www.w3.org/1999/xlink" xml:space="preserve" xmlns:serif="http://www.serif.com/" style="fill-rule:evenodd;clip-rule:evenodd;stroke-linejoin:round;stroke-miterlimit:2;">
    <g transform="matrix(1,0,0,1,-30.0928,0.350641)">
        <g>
            <g>
                <g>
                    <path d="M82.9,0.4C82.9,0.4 82.8,0.4 82.8,0.5C82.6,0.6 82.5,0.7 82.3,0.7L66.8,9.6L84.8,20L84.8,0C84.2,0 83.5,0.2 82.9,0.4Z" style="fill:rgb(0,169,206);fill-opacity:0.6;fill-rule:nonzero;"/>
                    <path d="M51.2,63.1L67.6,53.6L49.6,43.2L49.6,63.5C50.1,63.6 50.6,63.4 51.2,63.1Z" style="fill:rgb(0,169,206);fill-opacity:0.8;fill-rule:nonzero;"/>
                    <path d="M103.2,52.5L66.3,31.2L64.6,30.2L31.3,10.9C31.1,11.5 30.9,12.1 30.9,12.8L30.9,51.4C30.9,52.6 31.6,53.7 32.6,54.3L47.8,63.2C48.3,63.5 48.9,63.6 49.5,63.6L49.5,43.3L84,63.2C84.1,63.3 84.2,63.3 84.3,63.3L84.4,63.3C85.4,63.7 86.2,63.4 87.1,62.8L92.9,59.5L102.1,54C102.6,53.7 103,53.1 103.2,52.5Z" style="fill:rgb(0,169,206);fill-opacity:0.5;fill-rule:nonzero;"/>
                    <path d="M103.4,27.3L103.4,12.8C103.4,10.9 102.4,9.2 100.8,8.3L87.4,0.6C86.6,0.2 85.7,0 84.8,0L84.8,20.1L54.7,2.6L51.3,0.7C49.8,-0.1 48.5,-0.2 47,0.5C47,0.5 46.9,0.5 46.9,0.6C46.7,0.7 46.6,0.8 46.4,0.9L41.1,4L33.5,8.4C32.5,9 31.7,9.9 31.2,11L64.5,30.2L66.2,31.2L103.1,52.5C103.3,51.8 103.3,50.6 103.3,50.6L103.3,27.3L103.4,27.3Z" style="fill:rgb(0,169,206);fill-rule:nonzero;"/>
                </g>
            </g>
        </g>
    </g>
</svg>
