<?xml version="1.0" encoding="UTF-8"?>
<svg xmlns="http://www.w3.org/2000/svg" xmlns:xlink="http://www.w3.org/1999/xlink" id="Ebene_2" viewBox="0 0 453.54 453.54">
  <defs>
    <style>.cls-1{clip-path:url(#clippath);}.cls-2{fill:none;}.cls-2,.cls-3,.cls-4,.cls-5,.cls-6{stroke-width:0px;}.cls-7{clip-path:url(#clippath-1);}.cls-3{fill:#0d181c;}.cls-4{fill:#e40521;}.cls-5{fill:#fff;}.cls-6{fill:#ededed;}</style>
    <clipPath id="clippath">
      <rect class="cls-2" width="453.54" height="453.54"></rect>
    </clipPath>
    <clipPath id="clippath-1">
      <rect class="cls-2" width="453.54" height="453.54"></rect>
    </clipPath>
  </defs>
  <g id="Ebene_1-2">
    <g id="Vektor-Smartobjekt">
      <g class="cls-1">
        <g class="cls-7">
          <path class="cls-6" d="m380.68,299.64l72.87-72.87-110.63-110.64c2.58-2.48,5.06-5.15,7.39-8,24.02-29.36,16.01-62.08,15.66-63.46l-3.23-12.6-12.44,3.77-.34.1-23.95,7.24-23.95,7.24c-6.08,1.84-12.46,4.04-18.63,6.22L226.78,0l-55.43,55.42c-.62-.15-1.26-.29-1.86-.48l-9.32-2.82-14.93-4.51-32.01-9.68-6.92-2.09-12.45-3.76-3.21,12.6c-.4,1.57-9.51,38.76,17.15,66.21,1.35,1.4,2.71,2.73,4.06,4.01L0,226.77l57,57-10.09,64.22c-.56,3.88-1.13,8.48-1.13,13.19,0,12.91,4.58,42.93,47.03,42.93h84.53l49.44,49.43,49.43-49.43h119.57l9.48-60.89c.69-4.49,1.15-8.26,1.15-12.1,0-16.38-10.27-28.45-25.72-31.49"></path>
          <polygon class="cls-4" points="239.51 404.11 226.78 416.86 214.03 404.11 197.35 404.11 226.77 433.53 256.18 404.11 239.51 404.11"></polygon>
          <polygon class="cls-4" points="221.48 41.97 226.78 36.68 232.07 41.97 248.74 41.97 226.77 20.01 204.8 41.97 221.48 41.97"></polygon>
          <path class="cls-4" d="m131.77,131.69c-5.9-2.01-9.36-3.88-11.36-5.32L20,226.77l44.22,44.21h16.68l-44.21-44.21,95.08-95.08Z"></path>
          <path class="cls-4" d="m334.68,127.92c-2.41,1.42-5.9,3.28-11,5.68l93.17,93.17-73.31,73.3h16.68l73.31-73.3-98.85-98.85Z"></path>
          <path class="cls-3" d="m73.42,287.77h27.33l-10.38,65.19c-.27,1.5-.27,2.46-.27,3.01,0,3.27,2.05,5.33,5.33,5.33,4.38,0,6.7-2.88,7.52-8.34l10.39-65.19h27.2l-9.98,62.6c-1.64,9.98-2.87,18.44-8.88,25.7-6.29,7.51-15.85,11.2-28.84,11.2-20.37,0-30.21-8.33-30.21-26.11,0-3.41.41-6.96.96-10.79l9.84-62.6Z"></path>
          <path class="cls-3" d="m145.68,316.89h23.37l-1.5,9.57c5.47-6.97,12.17-10.8,20.37-11.48l-3.83,24.05h-.54c-12.71,0-17.09,4.51-18.86,15.71l-4.78,30.48h-25.02l10.8-68.34Z"></path>
          <path class="cls-3" d="m198.96,278.89h24.6l-7.11,45.51c5.61-6.28,11.07-9.29,17.49-9.29,10.67,0,17.23,8.48,17.23,23.65,0,28.02-12.58,48.24-28.57,48.24-6.42,0-10.79-2.86-14.62-9.29l-1.23,7.52h-24.6l16.81-106.34Zm17.77,87.2c4.92,0,8.88-9.16,8.88-22,0-5.47-1.64-7.93-4.92-7.93-4.92,0-8.88,9.29-8.88,21.87,0,5.33,1.63,8.06,4.92,8.06"></path>
          <path class="cls-3" d="m289.81,377.71c-5.73,6.29-11.2,9.43-17.63,9.43-10.66,0-17.08-8.61-17.08-23.78,0-28.01,12.58-48.38,28.56-48.38,6.42,0,10.8,2.87,14.62,9.29l1.24-7.38h24.6l-10.8,68.34h-24.6l1.08-7.52Zm-9.16-20.09c0,5.33,1.65,8.07,4.52,8.07,4.78,0,9.02-9.43,9.02-21.6,0-5.19-1.5-7.79-4.38-7.79-4.92,0-9.16,9.44-9.16,21.32"></path>
          <path class="cls-3" d="m334.35,316.89h22.28l-1.09,7.11c4.79-5.47,10.79-8.34,17.5-8.34,10.52,0,16.67,5.61,16.67,15.45,0,2.87-.42,6.01-.95,9.56l-6.97,44.56h-24.74l6.43-40.32c.13-1.09.27-2.05.27-2.32,0-2.59-1.51-4.1-4.11-4.1s-4.36,2.32-5.05,6.69l-6.42,40.05h-24.6l10.8-68.34Z"></path>
          <path class="cls-3" d="m102.71,47.76l70.11,21.19s1.28-10.09,12.24-11.49c10.96-1.39,15.4,6.34,15.4,6.34,0,0,13.83-7.13,27.65-7.13s27.26,7.13,27.26,7.13c0,0,7.71-8.15,16.19-5.94,10.67,2.77,12.26,11.09,12.26,11.09l70.09-21.19s7.08,27.66-13.23,52.49c-18.95,23.18-41.07,24.17-41.07,24.17l-29.24,84.97s4.75,21.83-10.54,32.83c-8.79,12.28-15.13,15.69-29.34,15.69-8.69,0-23.65,1.24-33.73-15.69-5.69-3.75-9.61-9.76-11.11-15.3-2.48-9.18.05-17.77.05-17.77l-28.69-85.13s-18.17.99-40.28-21.79c-22.11-22.78-14.02-54.47-14.02-54.47"></path>
          <path class="cls-4" d="m249.14,242.39s-1.23,6.14,3.54,11.14c2.86,3.01,5.52,3.93,7.8,3.87,2.55-.06,1.47,2.41,1.47,2.41,0,0-3.73,7.86-10.96,9.01-7.85,1.24-16.76,1.79-26.44-6.99-9.18-8.32-8-19.33-8-19.33l32.59-.11Z"></path>
          <path class="cls-5" d="m227.72,195.68c-21.75,0-39.25,4.37-39.38,24.45-.06,9.15,10.26,18.2,10.26,18.2h60.2s7.93-7.82,8.27-18.2c.69-20.91-17.63-24.45-39.37-24.45"></path>
          <path class="cls-5" d="m259.35,83.85s-17.79,4.37-29.92,4.4c-12.13.02-31.99-4.4-31.99-4.4l30.95,76.27,30.96-76.27Z"></path>
          <path class="cls-3" d="m211.61,217.59c1.26,1.17,2.5,6.32-.29,9.25-3.94,4.15-10.9,3.64-14.26-1.55-3.81-5.93-2.03-11.32-.36-15.53,1.53-3.87,6.88-4.95,6.88-4.95,0,0,1.66-.28,1.34,1.13-.29,1.26-.6,5.27.96,7.24,1.2,1.53,2.73,1.62,5.73,4.41m38.5-4.41c1.56-1.97,1.24-5.99.96-7.24-.32-1.41,1.34-1.13,1.34-1.13,0,0,5.35,1.08,6.88,4.95,1.67,4.21,3.45,9.6-.37,15.53-3.35,5.2-10.31,5.7-14.25,1.55-2.79-2.93-1.55-8.08-.28-9.25,2.99-2.79,4.51-2.88,5.72-4.41"></path>
          <path class="cls-5" d="m274.17,137.56c-1.12-1.36-5.99-4.23-7-1.47-.64-2.01.38-4.6,1.74-6.06,4.35-4.67,11.61-3.63,14.59,2.2,2.73,5.34-3.41,16.97-9.46,13.84.72-3.24,2.29-5.9.13-8.52"></path>
          <path class="cls-5" d="m181.2,137.56c1.13-1.36,5.99-4.23,7-1.47.63-2.01-.39-4.6-1.74-6.06-4.35-4.67-11.61-3.63-14.59,2.2-2.73,5.34,3.41,16.97,9.46,13.84-.72-3.24-2.29-5.9-.13-8.52"></path>
        </g>
      </g>
    </g>
  </g>
</svg>
